<svg width="16" height="16" viewBox="0 0 16 16" fill="none" xmlns="http://www.w3.org/2000/svg">
<path d="M15.4689 0.000488281H12.475C12.2001 0.000488281 11.9766 0.224052 11.9766 0.500044V3.49398C11.9766 3.77 12.2001 3.99353 12.4761 3.99353H15.4701C15.746 3.99353 15.9696 3.76997 15.9696 3.49398V0.500044C15.9685 0.22402 15.745 0.000488281 15.4689 0.000488281Z" fill="#6B6C7E"/>
<path d="M3.49447 5.9884H0.500532C0.224509 5.9884 0.000976562 6.21194 0.000976562 6.48796V9.48189C0.000976562 9.75788 0.22454 9.98145 0.500532 9.98145H3.49447C3.77049 9.98145 3.9929 9.75788 3.9929 9.48189V6.48796C3.9929 6.21194 3.76934 5.9884 3.49447 5.9884Z" fill="#6B6C7E"/>
<path d="M9.48079 5.9884H6.48686C6.21084 5.9884 5.9873 6.21194 5.9873 6.48796V9.48189C5.9873 9.75788 6.21084 9.98145 6.48686 9.98145H9.48079C9.75679 9.98145 9.98035 9.75788 9.98035 9.48189V6.48796C9.98035 6.21194 9.75679 5.9884 9.48079 5.9884Z" fill="#6B6C7E"/>
<path d="M15.4691 5.9884H12.4751C12.1991 5.9884 11.9756 6.21194 11.9756 6.48796V9.48189C11.9756 9.75788 12.1991 9.98145 12.4751 9.98145H15.4691C15.7451 9.98145 15.9686 9.75788 15.9686 9.48189V6.48796C15.9686 6.21194 15.7451 5.9884 15.4691 5.9884Z" fill="#6B6C7E"/>
<path d="M3.49447 11.9762H0.500532C0.224509 11.9762 0.000976562 12.1998 0.000976562 12.4758V15.4697C0.000976562 15.7446 0.22454 15.9681 0.500532 15.9681H3.49447C3.77049 15.9681 3.9929 15.7446 3.9929 15.4686V12.4746C3.9929 12.1998 3.76934 11.9762 3.49447 11.9762Z" fill="#6B6C7E"/>
<path d="M9.48079 11.9762H6.48686C6.21084 11.9762 5.9873 12.1998 5.9873 12.4758V15.4697C5.9873 15.7457 6.21084 15.9692 6.48686 15.9692H9.48079C9.75679 15.9692 9.98035 15.7457 9.98035 15.4697V12.4758C9.98035 12.1998 9.75679 11.9762 9.48079 11.9762Z" fill="#6B6C7E"/>
<path d="M15.4691 11.9762H12.4751C12.1991 11.9762 11.9756 12.1998 11.9756 12.4758V15.4697C11.9756 15.7457 12.1991 15.9693 12.4751 15.9693H15.4691C15.7451 15.9681 15.9686 15.7446 15.9686 15.4686V12.4746C15.9686 12.1998 15.7451 11.9762 15.4691 11.9762Z" fill="#6B6C7E"/>
<path d="M3.49447 0.000488281H0.500532C0.224509 0.000488281 0.000976562 0.224052 0.000976562 0.500044V3.49398C0.000976562 3.76888 0.22454 3.99241 0.500532 3.99241H3.49447C3.77049 3.99241 3.9929 3.76885 3.9929 3.49285V0.500075C3.9929 0.224052 3.76934 0.000488281 3.49447 0.000488281Z" fill="#6B6C7E"/>
<path d="M9.48079 0.000488281H6.48686C6.21084 0.000488281 5.9873 0.224052 5.9873 0.500044V3.49398C5.9873 3.77 6.21084 3.99353 6.48686 3.99353H9.48079C9.75679 3.99353 9.98035 3.76997 9.98035 3.49398V0.500044C9.98035 0.22402 9.75679 0.000488281 9.48079 0.000488281Z" fill="#6B6C7E"/>
</svg>
