<svg width="16" height="16" viewBox="0 0 16 16" fill="none" xmlns="http://www.w3.org/2000/svg">
<path fill-rule="evenodd" clip-rule="evenodd" d="M8 0C3.58203 0 0 3.58124 0 8C0 12.4178 3.58203 16 8 16C12.418 16 16 12.4178 16 8C16 3.58124 12.418 0 8 0ZM8.42578 11.274C8.26953 11.4249 8.08398 11.4999 7.86621 11.4999C7.64941 11.4999 7.46484 11.424 7.3125 11.274C7.16113 11.1232 7.08496 10.9395 7.08496 10.7236C7.08496 10.507 7.16113 10.3223 7.3125 10.1678C7.46484 10.0142 7.64941 9.93646 7.86621 9.93646C8.08398 9.93646 8.27051 10.0132 8.42578 10.1678C8.58008 10.3223 8.65723 10.507 8.65723 10.7236C8.65723 10.9395 8.58105 11.1232 8.42578 11.274ZM9.32031 7.99908C9.61816 7.78876 9.85449 7.54468 10.0332 7.26581C10.2109 6.98688 10.3008 6.65045 10.2988 6.25732C10.2988 6.00861 10.25 5.76538 10.1504 5.52954C10.0518 5.29364 9.90332 5.08521 9.70605 4.90509C9.50684 4.72498 9.2627 4.57874 8.97363 4.46716C8.68262 4.35559 8.3457 4.2998 7.96387 4.2998C7.59473 4.2998 7.26953 4.35919 6.98926 4.47717C6.70898 4.59515 6.47266 4.75146 6.28125 4.9444C6.09082 5.13818 5.94531 5.36133 5.84668 5.61365C5.74805 5.86597 5.69824 6.12292 5.69824 6.38531C5.69824 6.45752 5.70215 6.53162 5.70801 6.60657C5.71484 6.68243 5.72754 6.75562 5.74805 6.82782L6.99414 6.8772C6.9668 6.79852 6.9541 6.69427 6.9541 6.56262C6.9541 6.42548 6.97461 6.28925 7.01367 6.15485C7.05273 6.02051 7.11426 5.90253 7.19629 5.80103C7.2793 5.69958 7.38281 5.61633 7.50879 5.55054C7.63379 5.48474 7.78516 5.45178 7.96387 5.45178C8.12793 5.45178 8.27344 5.47638 8.39941 5.52582C8.52441 5.5752 8.62891 5.64014 8.71094 5.72241C8.79297 5.80469 8.85449 5.89972 8.89355 6.00763C8.93262 6.11554 8.95312 6.22522 8.95312 6.33679C8.95312 6.64496 8.81152 6.9046 8.52832 7.11395L8.05371 7.46777C7.76953 7.67804 7.56836 7.90204 7.4502 8.1416C7.33105 8.38116 7.27148 8.63165 7.27148 8.8941C7.27148 8.96631 7.27539 9.03485 7.28125 9.10071C7.28809 9.16656 7.29688 9.23151 7.31055 9.2973H8.37988V9.23792C8.37988 9.03491 8.42676 8.85663 8.51855 8.70209C8.61133 8.54852 8.74316 8.40863 8.91504 8.2843L9.32031 7.99908Z" fill="#6B6C7E"/>
</svg>
