<svg width="16" height="17" viewBox="0 0 16 17" fill="none" xmlns="http://www.w3.org/2000/svg">
<path fill-rule="evenodd" clip-rule="evenodd" d="M3.02344 2.97819C3.02344 0.34381 6.40468 -1.21869 8.3953 1.23131C6.84218 1.84381 5.46718 3.78131 6.05468 5.94694C6.0453 5.94694 6.03593 5.9485 6.02655 5.95006C6.01718 5.95162 6.0078 5.95319 5.99843 5.95319C4.35468 5.95319 3.02344 4.62194 3.02344 2.97819ZM12.9734 4.97817C12.9734 6.62122 11.6415 7.95317 9.99843 7.95317C8.35539 7.95317 7.02344 6.62122 7.02344 4.97817C7.02344 3.33513 8.35539 2.00317 9.99843 2.00317C11.6415 2.00317 12.9734 3.33513 12.9734 4.97817ZM15.9484 13.4C15.9484 16.8687 4.05469 16.8687 4.05469 13.4C4.05469 7.26873 15.9484 7.33123 15.9484 13.4ZM6.39923 6.84693C0.905481 6.0938 -2.62577 12.4688 2.53048 13.5563C2.58048 10.6282 4.80548 8.84693 7.52736 8.19068C7.05861 7.8313 6.67423 7.37505 6.39923 6.84693Z" fill="#004AD7"/>
</svg>
