<svg width="16" height="16" viewBox="0 0 16 16" fill="none" xmlns="http://www.w3.org/2000/svg">
<path fill-rule="evenodd" clip-rule="evenodd" d="M12.7117 15.8682C12.8279 15.9372 12.9568 15.9717 13.0847 15.9717H13.0945C13.4958 15.9717 13.8191 15.6454 13.8191 15.247C13.8191 15.1247 13.7908 15.0117 13.738 14.9113L11.9089 9.76938L15.698 6.75447C15.9402 6.5631 16.031 6.23996 15.9304 5.9482C15.8298 5.65643 15.5544 5.46193 15.2468 5.46193H10.5349L8.67749 0.498779C8.57007 0.216431 8.30054 0.0281982 7.99975 0.0281982C7.698 0.0281982 7.42847 0.216431 7.32202 0.498779L5.4646 5.46193H0.755614C0.447996 5.46193 0.175536 5.65643 0.0720199 5.9482C-0.0314957 6.23996 0.0622543 6.5631 0.300536 6.75447L4.09643 9.77251L2.35522 14.8831C2.25854 15.1717 2.34936 15.4886 2.58472 15.68C2.82007 15.8713 3.14917 15.8964 3.40991 15.7427L7.99682 13.0384L12.7117 15.8682ZM8.37378 11.5733C8.25757 11.5043 8.12866 11.4698 7.99975 11.4698C7.87182 11.4698 7.74585 11.5043 7.63257 11.5702L4.36108 13.4996L5.63745 9.75684C5.73511 9.4682 5.64038 9.14821 5.4021 8.95683L2.82983 6.91135H5.96753C6.26831 6.91135 6.53784 6.7231 6.64429 6.44075L7.99975 2.82036L9.35522 6.44075C9.45874 6.7231 9.73218 6.91135 10.033 6.91135H13.1707L10.5974 8.95683C10.3562 9.14821 10.2624 9.47447 10.366 9.76624L11.7244 13.5843L8.37378 11.5733Z" fill="#6B6C7E"/>
</svg>
