<svg width="16" height="16" viewBox="0 0 16 16" fill="none" xmlns="http://www.w3.org/2000/svg">
<path d="M14.0921 8.7747C14.164 8.29051 14.0765 7.54705 14.0328 7.20968L15.5482 6.20383C15.9669 5.91332 16.0982 5.35728 15.8576 4.91058L14.7421 2.9426C14.4952 2.4834 13.939 2.29285 13.4609 2.49902L11.8611 3.23311C11.458 2.90824 10.7893 2.549 10.3019 2.35845L10.0925 0.862163C10.0238 0.368606 9.59884 0 9.09889 0H6.91161C6.40854 0 5.98671 0.37173 5.91797 0.865287L5.71486 2.33034C5.1368 2.57087 4.56186 2.92698 4.14315 3.23936L2.58081 2.4834C2.12148 2.30223 1.63091 2.34283 1.38094 2.77079L0.137315 4.6763C-0.109534 5.09488 -0.0157942 5.62905 0.356042 5.94455L1.92775 7.20031C1.87776 7.56579 1.83401 8.29988 1.90901 8.79032L0.42791 9.80867C0.00607857 10.1054 -0.122033 10.674 0.131066 11.1207L1.34656 13.1355C1.60279 13.5822 2.15898 13.7634 2.63081 13.5541L4.14315 12.7513C4.55561 13.0699 5.22116 13.476 5.71174 13.6665L5.88985 15.1097C5.94921 15.6127 6.37417 15.9906 6.88349 15.9938L9.13638 16C9.64571 16 10.0738 15.622 10.1332 15.1191L10.2988 13.654C10.8831 13.4198 11.4611 13.1105 11.8736 12.7856L13.5203 13.4635C14.0015 13.6884 14.5764 13.501 14.8295 13.0355L15.8794 11.1581C16.1169 10.7177 15.9951 10.171 15.5888 9.87739L14.0921 8.7747ZM8.00838 10.7271C4.76809 10.7271 4.55873 5.72901 8.00838 5.72901C11.4049 5.72901 11.2487 10.7271 8.00838 10.7271Z" fill="#6B6C7E"/>
</svg>
