<svg width="16" height="16" viewBox="0 0 16 16" fill="none" xmlns="http://www.w3.org/2000/svg">
<path d="M4.99352 13.0119H14.9993C16.3336 13.0119 16.3336 15.0118 14.9993 15.0118H4.99352C3.66858 15.0118 3.66858 13.0119 4.99352 13.0119ZM4.99352 9.01208H14.9993C16.3336 9.01208 16.3336 7.01218 14.9993 7.01218H4.99352C3.66858 7.01218 3.66858 9.01208 4.99352 9.01208ZM4.99352 2.99986H14.9993C16.3336 2.99986 16.3336 0.999954 14.9993 0.999954H4.99352C3.66858 0.999954 3.66858 2.99986 4.99352 2.99986ZM0 2.00303C0 3.33422 1.99991 3.33422 1.99991 2.00303C1.99991 0.668719 0 0.668719 0 2.00303ZM0 8.01213C0 9.34332 1.99991 9.34332 1.99991 8.01213C1.99991 6.67782 0 6.67782 0 8.01213ZM0 14.0119C0 15.343 1.99991 15.343 1.99991 14.0119C1.99991 12.6775 0 12.6775 0 14.0119Z" fill="#6B6C7E"/>
</svg>
