<svg width="16" height="16" viewBox="0 0 16 16" fill="none" xmlns="http://www.w3.org/2000/svg">
<path d="M11.0025 4.52943L8.7655 2.2963C8.57492 2.10604 8.31873 2 8.05005 2C7.78136 2 7.52518 2.10604 7.3346 2.2963L5.09763 4.52943C4.70085 4.92554 4.70085 5.56491 5.09763 5.95789C5.29446 6.15439 5.55377 6.25419 5.81309 6.25419C6.0724 6.25419 6.33171 6.15439 6.52854 5.95789L7.05029 5.43704V13.0019C7.05029 13.554 7.49706 14 8.05005 14C8.60304 14 9.04981 13.554 9.04981 13.0019V5.43704L9.57156 5.95789C9.96834 6.354 10.6088 6.354 11.0025 5.95789C11.3992 5.56179 11.3992 4.92242 11.0025 4.52943Z" fill="#6B6C7E"/>
</svg>
