<svg width="50" height="17" viewBox="0 0 50 17" fill="none" xmlns="http://www.w3.org/2000/svg">
<path fill-rule="evenodd" clip-rule="evenodd" d="M0 16.1786V0.17877H4.90861C7.37413 0.17877 9.34651 0.919911 10.8258 2.40222C12.3051 3.88452 13.0448 5.81 13.0448 8.17871C13.0448 10.5474 12.3051 12.4729 10.8258 13.9552C9.34651 15.4375 7.37413 16.1786 4.90861 16.1786H0ZM2.06206 14.2122H4.90861C6.76148 14.2122 8.22956 13.6833 9.3129 12.6256C10.3962 11.5679 10.9379 10.0856 10.9379 8.17871C10.9379 6.28672 10.3962 4.80816 9.3129 3.74299C8.22956 2.67781 6.76148 2.14523 4.90861 2.14523H2.06206V14.2122ZM17.0668 16.1786H15.0047V5.22901H16.9771V7.0167H17.0668C17.276 6.4208 17.7056 5.92919 18.3556 5.54186C19.0056 5.15452 19.6369 4.96085 20.2495 4.96085C20.8622 4.96085 21.3777 5.05024 21.7961 5.22901L21.0116 7.15078C20.7426 7.0465 20.3766 6.99436 19.9133 6.99436C19.1662 6.99436 18.505 7.28858 17.9297 7.87703C17.3544 8.46549 17.0668 9.23642 17.0668 10.1899V16.1786ZM24.675 2.905C24.2716 2.905 23.9279 2.76348 23.644 2.48043C23.3601 2.19737 23.2181 1.85474 23.2181 1.4525C23.2181 1.05027 23.3601 0.707631 23.644 0.424578C23.9279 0.141524 24.2716 0 24.675 0C25.0785 0 25.4221 0.141524 25.706 0.424578C25.9899 0.707631 26.1319 1.05027 26.1319 1.4525C26.1319 1.85474 25.9899 2.19737 25.706 2.48043C25.4221 2.76348 25.0785 2.905 24.675 2.905ZM25.706 16.1786H23.644V5.22901H25.706V16.1786ZM31.9918 16.1786L27.5539 5.22901H29.7953L33.0229 13.7206H33.0677L36.3401 5.22901H38.5366L34.0539 16.1786H31.9918ZM44.8448 16.5362C43.1862 16.5362 41.8377 15.985 40.7992 14.8826C39.7607 13.7801 39.2414 12.3872 39.2414 10.7038C39.2414 9.10979 39.7457 7.73924 40.7543 6.59213C41.763 5.44502 43.0517 4.87147 44.6207 4.87147C46.2494 4.87147 47.5532 5.40032 48.5319 6.45805C49.5106 7.51577 50 8.93102 50 10.7038L49.9776 11.0837H41.3035C41.3633 12.1861 41.7331 13.0576 42.413 13.6982C43.0928 14.3388 43.8885 14.6591 44.8 14.6591C46.2793 14.6591 47.2805 14.0334 47.8035 12.782L49.6414 13.5418C49.2828 14.391 48.6925 15.1023 47.8707 15.6759C47.0489 16.2494 46.0402 16.5362 44.8448 16.5362ZM47.8035 9.3854C47.7586 8.7597 47.471 8.16381 46.9405 7.5977C46.4101 7.0316 45.6219 6.74855 44.5759 6.74855C43.8138 6.74855 43.1526 6.98691 42.5923 7.46363C42.0319 7.94035 41.6472 8.58093 41.438 9.3854H47.8035Z" fill="#757575"/>
</svg>
