<svg width="16" height="16" viewBox="0 0 16 16" fill="none" xmlns="http://www.w3.org/2000/svg">
<path fill-rule="evenodd" clip-rule="evenodd" d="M13.6562 2.34375C12.1465 0.831299 10.1377 0 8 0C5.8623 0 3.85352 0.831299 2.34375 2.34375C0.831055 3.85315 0 5.86255 0 8C0 10.1375 0.831055 12.1469 2.34375 13.6562C3.85645 15.1687 5.8623 16 8 16C10.1377 16 12.1465 15.1687 13.6562 13.6562C15.1689 12.1438 16 10.1375 16 8C16 5.86255 15.1689 3.85315 13.6562 2.34375ZM8 14C4.69043 14 2 11.3093 2 8C2 4.69067 4.69043 2 8 2C11.3096 2 14 4.69067 14 8C14 11.3093 11.3096 14 8 14ZM6 11C5.87207 11 5.74316 10.95 5.64648 10.8531C5.4502 10.6594 5.4502 10.3406 5.64648 10.1469L7.14648 8.64685C7.05273 8.44995 7 8.2312 7 8C7 7.34692 7.41895 6.79065 8 6.58435V3.5C8 3.22498 8.22461 3 8.5 3C8.77441 3 9 3.22498 9 3.5V6.58435C9.58105 6.79065 10 7.34692 10 8C10 8.82812 9.32812 9.5 8.5 9.5C8.26855 9.5 8.0498 9.4469 7.85254 9.35315L6.35254 10.8531C6.25586 10.95 6.12793 11 6 11Z" fill="#6B6C7E"/>
</svg>
